# Blender 3.3.0 Release Candidate
# www.blender.org
mtllib intrusion_box_LOD 1.mtl
o Cube.004
v -0.952152 -0.857687 0.857687
v -0.952152 0.857687 0.857687
v -0.952152 -0.857687 -0.857687
v -0.952152 0.857687 -0.857687
v -0.857687 0.857687 -0.952152
v -0.857687 -0.857687 -0.952152
v 0.857687 -0.857687 -0.952152
v 0.857687 0.857687 -0.952152
v 0.952152 0.857687 -0.857687
v 0.952152 -0.857687 -0.857687
v 0.952152 -0.857687 0.857687
v 0.952152 0.857687 0.857687
v 0.857687 0.857687 0.952152
v 0.857687 -0.857687 0.952152
v -0.857687 -0.857687 0.952152
v -0.857687 0.857687 0.952152
v 0.857687 -0.952152 -0.857687
v -0.857687 -0.952152 -0.857687
v -0.857687 -0.952152 0.857687
v 0.857687 -0.952152 0.857687
v -0.857687 0.952152 -0.857687
v 0.857687 0.952152 -0.857687
v 0.857687 0.952152 0.857687
v -0.857687 0.952152 0.857687
v 0.952152 -0.857687 -0.857687
v -0.945208 -0.977304 -1.000000
v 1.000000 -0.945208 0.977304
v 0.977304 1.000000 0.945208
v 1.000000 0.945208 0.977304
v 1.000000 0.977304 0.945208
v 0.977304 -0.945208 -1.000000
v -1.000000 0.880383 -0.848286
v -1.000000 -0.880383 -0.848286
v -0.880383 -0.848286 -1.000000
v 0.857687 0.857687 -0.977304
v 0.857687 -0.857687 -0.977304
v 0.977304 -0.857687 0.857687
v 0.848286 -0.880383 1.000000
v -0.857687 -0.977304 -0.857687
v -0.848286 -1.000000 -0.880383
v 0.952152 0.857687 0.857687
v 0.857687 0.857687 -0.952152
v -0.952152 -0.857687 -0.857687
v -0.857687 -0.857687 0.952152
v 0.857687 -0.857687 0.952152
v -1.000000 -0.945208 0.977304
v -0.945208 -0.977304 1.000000
v -0.945208 -1.000000 0.977304
v -1.000000 -0.977304 -0.945208
v -0.945208 1.000000 -0.977304
v 1.000000 -0.848286 -0.880383
v 0.848286 0.880383 -1.000000
v -0.857687 -0.857687 -0.977304
v -1.000000 0.880383 0.848286
v -1.000000 0.848286 0.880383
v -0.977304 0.857687 0.857687
v -1.000000 -0.848286 0.880383
v 0.880383 -1.000000 0.848286
v -0.977304 -1.000000 -0.945208
v -0.945208 0.977304 -1.000000
v -1.000000 0.945208 -0.977304
v 0.945208 -0.977304 -1.000000
v 0.977304 0.857687 0.857687
v 1.000000 0.880383 -0.848286
v 1.000000 -0.880383 -0.848286
v -0.848286 -0.880383 -1.000000
v -0.857687 -0.977304 0.857687
v 0.848286 1.000000 0.880383
v 0.848286 1.000000 -0.880383
v 0.952152 -0.857687 0.857687
v -0.857687 -0.952152 0.857687
v 0.857687 -0.952152 0.857687
v 0.857687 0.952152 -0.857687
v 0.945208 -1.000000 -0.977304
v 1.000000 0.945208 -0.977304
v 0.977304 -1.000000 0.945208
v 0.945208 0.977304 1.000000
v -0.977304 -0.945208 -1.000000
v -1.000000 -0.977304 0.945208
v -0.977304 0.945208 1.000000
v -0.945208 0.977304 1.000000
v 1.000000 0.848286 -0.880383
v 1.000000 -0.848286 0.880383
v 0.857687 -0.857687 0.977304
v 0.880383 -0.848286 1.000000
v -0.977304 -0.857687 -0.857687
v -0.880383 0.848286 -1.000000
v -0.848286 0.880383 -1.000000
v 0.880383 0.848286 -1.000000
v 0.848286 -1.000000 -0.880383
v 0.857687 0.977304 0.857687
v -0.952152 0.857687 0.857687
v -0.857687 0.857687 0.952152
v -1.000000 0.945208 0.977304
v -1.000000 0.977304 0.945208
v -0.977304 -1.000000 0.945208
v -0.977304 1.000000 -0.945208
v -0.945208 -1.000000 -0.977304
v 1.000000 -0.977304 0.945208
v 0.945208 1.000000 -0.977304
v -1.000000 -0.880383 0.848286
v -0.857687 0.857687 -0.977304
v 0.977304 -0.857687 -0.857687
v 1.000000 -0.880383 0.848286
v 1.000000 0.848286 0.880383
v 1.000000 0.880383 0.848286
v 0.848286 0.880383 1.000000
v -0.880383 -0.848286 1.000000
v 0.880383 1.000000 -0.848286
v 0.880383 1.000000 0.848286
v -0.857687 0.977304 0.857687
v 0.857687 -0.977304 0.857687
v 0.848286 -1.000000 0.880383
v 0.857687 -0.857687 -0.952152
v -0.952152 -0.857687 0.857687
v 0.945208 1.000000 0.977304
v 0.945208 -0.977304 1.000000
v 0.945208 -1.000000 0.977304
v 0.977304 1.000000 -0.945208
v 1.000000 -0.945208 -0.977304
v -0.977304 -0.945208 1.000000
v 0.977304 0.857687 -0.857687
v -0.977304 -0.857687 0.857687
v -0.848286 -0.880383 1.000000
v 0.857687 0.977304 -0.857687
v -0.857687 0.977304 -0.857687
v 0.880383 -1.000000 -0.848286
v 0.857687 -0.977304 -0.857687
v -0.880383 -1.000000 0.848286
v -0.952152 0.857687 -0.857687
v 0.952152 0.857687 -0.857687
v 0.857687 0.952152 0.857687
v -0.857687 0.952152 0.857687
v -0.857687 0.952152 -0.857687
v 0.857687 -0.952152 -0.857687
v -0.857687 -0.952152 -0.857687
v -1.000000 0.977304 -0.945208
v -0.977304 1.000000 0.945208
v -0.945208 1.000000 0.977304
v 1.000000 0.977304 -0.945208
v 0.977304 0.945208 -1.000000
v 0.977304 -0.945208 1.000000
v -0.848286 0.880383 1.000000
v 0.857687 0.857687 0.977304
v 0.848286 -0.880383 -1.000000
v -0.880383 1.000000 0.848286
v -0.880383 1.000000 -0.848286
v -0.880383 -1.000000 -0.848286
v 0.857687 0.857687 0.952152
v -0.857687 -0.857687 -0.952152
v -0.857687 0.857687 -0.952152
v 0.945208 0.977304 -1.000000
v 0.977304 -1.000000 -0.945208
v 1.000000 -0.977304 -0.945208
v 0.977304 0.945208 1.000000
v -0.977304 0.945208 -1.000000
v -1.000000 -0.945208 -0.977304
v 0.880383 0.848286 1.000000
v -0.857687 -0.857687 0.977304
v -0.857687 0.857687 0.977304
v -0.880383 0.848286 1.000000
v -1.000000 -0.848286 -0.880383
v -0.977304 0.857687 -0.857687
v -1.000000 0.848286 -0.880383
v 0.880383 -0.848286 -1.000000
v -0.848286 1.000000 0.880383
v -0.848286 1.000000 -0.880383
v -0.848286 -1.000000 0.880383
vn -1.0000 -0.0000 -0.0000
vn -0.0000 -0.0000 -1.0000
vn 1.0000 -0.0000 -0.0000
vn -0.0000 -0.0000 1.0000
vn -0.0000 -1.0000 -0.0000
vn -0.0000 1.0000 -0.0000
vn -0.7071 -0.7071 -0.0000
vn -0.7071 -0.0000 0.7071
vn -0.7071 0.7071 -0.0000
vn -0.7071 -0.0000 -0.7071
vn -0.0000 -0.7071 -0.7071
vn -0.0000 0.7071 -0.7071
vn 0.7071 -0.0000 -0.7071
vn 0.7071 -0.7071 -0.0000
vn 0.7071 0.7071 -0.0000
vn 0.7071 -0.0000 0.7071
vn -0.0000 -0.7071 0.7071
vn -0.0000 0.7071 0.7071
vn 0.5774 0.5774 0.5773
vn -0.6533 0.3827 -0.6533
vn -0.6533 -0.6533 0.3827
vn 0.3827 -0.6533 -0.6533
vn -0.5774 0.5773 0.5774
vn 0.6533 0.3827 -0.6533
vn 0.6533 -0.6533 0.3827
vn -0.3827 -0.6533 -0.6533
vn 0.5774 0.5773 -0.5774
vn -0.6533 0.3827 0.6533
vn -0.6533 -0.6533 -0.3827
vn 0.3827 -0.6533 0.6533
vn -0.5774 0.5774 -0.5773
vn 0.6533 0.3827 0.6533
vn 0.6533 -0.6533 -0.3827
vn -0.3827 -0.6533 0.6533
vn 0.5774 -0.5773 0.5774
vn -0.6533 -0.3827 -0.6533
vn -0.6533 0.6533 0.3827
vn 0.3827 0.6533 -0.6533
vn -0.5774 -0.5774 0.5773
vn 0.6533 -0.3827 -0.6533
vn 0.6533 0.6533 0.3827
vn -0.3827 0.6533 -0.6533
vn 0.5774 -0.5774 -0.5773
vn -0.6533 -0.3827 0.6533
vn -0.6533 0.6533 -0.3827
vn 0.3827 0.6533 0.6533
vn -0.5774 -0.5773 -0.5774
vn 0.6533 -0.3827 0.6533
vn 0.6533 0.6533 -0.3827
vn -0.3827 0.6533 0.6533
vt 0.392789 0.017789
vt 0.607211 0.017789
vt 0.392789 0.232211
vt 0.607211 0.232211
vt 0.607211 0.267789
vt 0.392789 0.267789
vt 0.392789 0.482211
vt 0.607211 0.482211
vt 0.607211 0.517789
vt 0.392789 0.517789
vt 0.392789 0.732211
vt 0.607211 0.732211
vt 0.607211 0.767789
vt 0.392789 0.767789
vt 0.392789 0.982211
vt 0.607211 0.982211
vt 0.357211 0.517789
vt 0.142789 0.517789
vt 0.142789 0.732211
vt 0.357211 0.732211
vt 0.857211 0.517789
vt 0.642789 0.517789
vt 0.642789 0.732211
vt 0.857211 0.732211
vt 0.392789 0.517789
vt 0.377837 0.256849
vt 0.131849 0.500000
vt 0.622163 0.756849
vt 0.381849 0.747163
vt 0.618151 0.747163
vt 0.627837 0.743151
vt 0.618151 0.747163
vt 0.622163 0.743151
vt 0.381849 0.497163
vt 0.618151 0.752837
vt 0.610048 0.231036
vt 0.610048 0.731036
vt 0.389952 0.231036
vt 0.610048 0.731036
vt 0.393964 0.264952
vt 0.606036 0.764952
vt 0.607211 0.482211
vt 0.607211 0.767789
vt 0.392789 0.482211
vt 0.607211 0.767789
vt 0.392789 0.732211
vt 0.607211 0.732211
vt 0.389952 0.768964
vt 0.610048 0.768964
vt 0.142789 0.517789
vt 0.642789 0.732211
vt 0.143964 0.514952
vt 0.643964 0.735048
vt 0.607211 0.732211
vt 0.607211 0.482211
vt 0.392789 0.232211
vt 0.392789 0.982211
vt 0.392789 0.767789
vt 0.381849 0.002837
vt 0.618151 0.747163
vt 0.377837 0.993151
vt 0.131849 0.750000
vt 0.622163 0.756849
vt 0.131849 0.747163
vt 0.625000 0.756849
vt 0.377837 0.243151
vt 0.125000 0.506849
vt 0.622163 0.743151
vt 0.868151 0.502837
vt 0.625000 0.256849
vt 0.625000 0.756849
vt 0.393964 0.514952
vt 0.606036 0.735048
vt 0.610048 0.481036
vt 0.610048 0.768964
vt 0.392789 0.267789
vt 0.607211 0.767789
vt 0.610048 0.018964
vt 0.610048 0.731036
vt 0.606036 0.014952
vt 0.606036 0.735048
vt 0.607211 0.017789
vt 0.607211 0.732211
vt 0.393964 0.014952
vt 0.606036 0.735048
vt 0.360048 0.731036
vt 0.639952 0.731036
vt 0.127837 0.506849
vt 0.627837 0.743151
vt 0.622163 0.256849
vt 0.622163 0.756849
vt 0.618151 0.247163
vt 0.618151 0.747163
vt 0.377837 0.493151
vt 0.368151 0.500000
vt 0.622163 0.756849
vt 0.607211 0.732211
vt 0.610048 0.518964
vt 0.610048 0.731036
vt 0.389952 0.518964
vt 0.610048 0.731036
vt 0.389952 0.268964
vt 0.610048 0.768964
vt 0.142789 0.732211
vt 0.642789 0.732211
vt 0.643964 0.735048
vt 0.643964 0.514952
vt 0.643964 0.735048
vt 0.392789 0.732211
vt 0.142789 0.732211
vt 0.357211 0.732211
vt 0.642789 0.517789
vt 0.368151 0.502837
vt 0.625000 0.756849
vt 0.618151 0.502837
vt 0.618151 0.747163
vt 0.372163 0.743151
vt 0.627837 0.743151
vt 0.622163 0.756849
vt 0.381849 0.252837
vt 0.618151 0.752837
vt 0.377837 0.006849
vt 0.125000 0.743151
vt 0.622163 0.743151
vt 0.618151 0.997163
vt 0.618151 0.000000
vt 0.618151 0.752837
vt 0.622163 0.993151
vt 0.622163 0.756849
vt 0.606036 0.514952
vt 0.606036 0.735048
vt 0.393964 0.735048
vt 0.606036 0.735048
vt 0.392789 0.767789
vt 0.607211 0.767789
vt 0.393964 0.764952
vt 0.606036 0.764952
vt 0.392789 0.232211
vt 0.607211 0.732211
vt 0.606036 0.264952
vt 0.606036 0.764952
vt 0.610048 0.268964
vt 0.610048 0.768964
vt 0.606036 0.485048
vt 0.606036 0.764952
vt 0.356036 0.514952
vt 0.643964 0.735048
vt 0.642789 0.732211
vt 0.607211 0.017789
vt 0.607211 0.982211
vt 0.618151 0.002837
vt 0.618151 0.747163
vt 0.622163 0.006849
vt 0.622163 0.743151
vt 0.127837 0.743151
vt 0.627837 0.743151
vt 0.872163 0.506849
vt 0.625000 0.243151
vt 0.627837 0.743151
vt 0.131849 0.502837
vt 0.625000 0.756849
vt 0.377837 0.743151
vt 0.622163 0.743151
vt 0.631849 0.502837
vt 0.625000 0.493151
vt 0.625000 0.756849
vt 0.389952 0.018964
vt 0.610048 0.731036
vt 0.607211 0.267789
vt 0.607211 0.767789
vt 0.392789 0.517789
vt 0.607211 0.732211
vt 0.389952 0.731036
vt 0.610048 0.731036
vt 0.606036 0.735048
vt 0.610048 0.731036
vt 0.610048 0.768964
vt 0.393964 0.985048
vt 0.606036 0.764952
vt 0.639952 0.518964
vt 0.639952 0.731036
vt 0.639952 0.731036
vt 0.857211 0.732211
vt 0.642789 0.732211
vt 0.357211 0.732211
vt 0.642789 0.732211
vt 0.356036 0.735048
vt 0.643964 0.735048
vt 0.392789 0.482211
vt 0.392789 0.017789
vt 0.631849 0.747163
vt 0.625000 0.756849
vt 0.377837 0.756849
vt 0.368151 0.750000
vt 0.622163 0.756849
vt 0.368151 0.747163
vt 0.625000 0.756849
vt 0.627837 0.506849
vt 0.627837 0.743151
vt 0.381849 0.502837
vt 0.618151 0.747163
vt 0.381849 0.997163
vt 0.381849 0.000000
vt 0.618151 0.752837
vt 0.607211 0.517789
vt 0.607211 0.732211
vt 0.392789 0.017789
vt 0.607211 0.732211
vt 0.389952 0.981036
vt 0.610048 0.768964
vt 0.642789 0.517789
vt 0.642789 0.732211
vt 0.857211 0.517789
vt 0.642789 0.732211
vt 0.360048 0.518964
vt 0.639952 0.731036
vt 0.357211 0.517789
vt 0.642789 0.732211
vt 0.139952 0.731036
vt 0.639952 0.731036
vt 0.607211 0.232211
vt 0.607211 0.517789
vt 0.642789 0.732211
vt 0.857211 0.732211
vt 0.857211 0.517789
vt 0.357211 0.517789
vt 0.142789 0.517789
vt 0.622163 0.243151
vt 0.622163 0.743151
vt 0.872163 0.743151
vt 0.625000 0.006849
vt 0.627837 0.743151
vt 0.868151 0.747163
vt 0.625000 0.993151
vt 0.625000 0.756849
vt 0.622163 0.506849
vt 0.622163 0.743151
vt 0.618151 0.497163
vt 0.618151 0.752837
vt 0.381849 0.752837
vt 0.618151 0.752837
vt 0.610048 0.981036
vt 0.610048 0.768964
vt 0.607211 0.767789
vt 0.389952 0.481036
vt 0.610048 0.768964
vt 0.860048 0.731036
vt 0.639952 0.731036
vt 0.860048 0.518964
vt 0.639952 0.731036
vt 0.139952 0.518964
vt 0.639952 0.731036
vt 0.607211 0.767789
vt 0.392789 0.267789
vt 0.607211 0.267789
vt 0.622163 0.493151
vt 0.622163 0.756849
vt 0.372163 0.506849
vt 0.627837 0.743151
vt 0.377837 0.506849
vt 0.622163 0.743151
vt 0.618151 0.752837
vt 0.618151 0.252837
vt 0.618151 0.752837
vt 0.381849 0.247163
vt 0.618151 0.747163
vt 0.606036 0.764952
vt 0.392789 0.982211
vt 0.607211 0.767789
vt 0.607211 0.982211
vt 0.607211 0.767789
vt 0.606036 0.985048
vt 0.606036 0.764952
vt 0.393964 0.235048
vt 0.606036 0.735048
vt 0.607211 0.232211
vt 0.607211 0.732211
vt 0.606036 0.235048
vt 0.606036 0.735048
vt 0.393964 0.485048
vt 0.606036 0.764952
vt 0.856036 0.735048
vt 0.643964 0.735048
vt 0.856036 0.514952
vt 0.643964 0.735048
vt 0.143964 0.735048
vt 0.643964 0.735048
s 0
f 1/1/1 2/2/1 4/4/1 3/3/1
f 6/6/2 5/5/2 8/8/2 7/7/2
f 10/10/3 9/9/3 12/12/3 11/11/3
f 14/14/4 13/13/4 16/16/4 15/15/4
f 18/18/5 17/17/5 20/20/5 19/19/5
f 22/22/6 21/21/6 24/24/6 23/23/6
f 36/44/6 53/76/6 150/254/6 114/189/6
f 86/138/6 123/207/6 115/190/6 43/56/6
f 125/211/4 126/213/4 134/225/4 73/112/4
f 111/183/2 91/148/2 132/223/2 133/224/2
f 39/50/4 128/217/4 135/226/4 136/227/4
f 47/61/4 117/193/4 38/48/4 124/209/4
f 139/233/6 116/191/6 68/106/6 166/282/6
f 62/94/2 26/26/2 66/102/2 145/245/2
f 80/125/4 121/202/4 108/178/4 161/272/4
f 98/160/5 74/113/5 90/146/5 40/52/5
f 153/258/5 76/117/5 58/86/5 127/215/5
f 123/207/2 56/82/2 92/149/2 115/190/2
f 100/164/6 50/69/6 167/284/6 69/107/6
f 141/238/2 31/34/2 165/280/2 89/144/2
f 120/200/3 75/115/3 82/130/3 51/72/3
f 28/31/6 119/198/6 109/180/6 110/182/6
f 142/240/4 155/262/4 158/267/4 85/136/4
f 29/32/3 27/29/3 83/132/3 105/175/3
f 78/120/2 156/263/2 87/140/2 34/40/2
f 118/196/5 48/64/5 168/286/5 113/187/5
f 49/66/1 79/122/1 101/167/1 33/38/1
f 61/92/1 157/265/1 162/274/1 164/278/1
f 99/162/3 154/260/3 65/100/3 104/173/3
f 97/157/6 138/230/6 146/247/6 147/249/6
f 46/59/1 94/151/1 55/80/1 57/84/1
f 60/90/2 152/256/2 52/74/2 88/142/2
f 95/153/1 137/228/1 32/36/1 54/78/1
f 77/119/4 81/128/4 143/242/4 107/177/4
f 140/236/3 30/33/3 106/176/3 64/98/3
f 56/82/5 163/276/5 130/221/5 92/149/5
f 37/46/6 103/171/6 25/25/6 70/109/6
f 102/169/5 35/42/5 42/55/5 151/255/5
f 159/268/6 84/134/6 45/58/6 44/57/6
f 163/276/4 86/138/4 43/56/4 130/221/4
f 122/205/5 63/97/5 41/54/5 131/222/5
f 67/104/3 39/50/3 136/227/3 71/110/3
f 35/42/1 36/44/1 114/189/1 42/55/1
f 144/244/5 160/270/5 93/150/5 149/253/5
f 91/148/1 125/211/1 73/112/1 132/223/1
f 53/76/3 102/169/3 151/255/3 150/254/3
f 63/97/2 37/46/2 70/109/2 41/54/2
f 128/217/1 112/185/1 72/111/1 135/226/1
f 103/171/4 122/205/4 131/222/4 25/25/4
f 160/270/3 159/268/3 44/57/3 93/150/3
f 126/213/3 111/183/3 133/224/3 134/225/3
f 84/134/1 144/244/1 149/253/1 45/58/1
f 112/185/2 67/104/2 71/110/2 72/111/2
f 59/88/7 96/155/7 79/123/7 49/67/7
f 121/203/8 80/126/8 94/151/8 46/59/8
f 138/231/9 97/158/9 137/228/9 95/153/9
f 156/263/10 78/120/10 157/265/10 61/92/10
f 74/113/11 98/160/11 26/27/11 62/95/11
f 50/70/12 100/165/12 152/256/12 60/90/12
f 75/115/13 120/200/13 31/34/13 141/238/13
f 76/117/14 153/258/14 154/260/14 99/162/14
f 119/198/15 28/31/15 30/33/15 140/236/15
f 155/262/16 142/240/16 27/29/16 29/32/16
f 48/64/17 118/196/17 117/194/17 47/62/17
f 116/192/18 139/234/18 81/128/18 77/119/18
f 57/84/10 55/80/10 56/82/10 123/207/10
f 33/38/9 101/167/9 123/207/9 86/138/9
f 54/78/7 32/36/7 163/276/7 56/82/7
f 164/278/8 162/274/8 86/138/8 163/276/8
f 102/169/13 53/76/13 34/40/13 87/140/13
f 145/245/12 66/102/12 53/76/12 36/44/12
f 88/142/11 52/74/11 35/42/11 102/169/11
f 89/144/10 165/280/10 36/44/10 35/42/10
f 122/205/16 103/171/16 51/72/16 82/130/16
f 104/173/15 65/100/15 103/171/15 37/46/15
f 64/98/14 106/176/14 63/97/14 122/205/14
f 105/175/13 83/132/13 37/46/13 63/97/13
f 144/244/8 84/134/8 85/136/8 158/267/8
f 124/209/18 38/48/18 84/134/18 159/268/18
f 107/177/17 143/242/17 160/270/17 144/244/17
f 159/268/16 160/270/16 161/272/16 108/178/16
f 128/217/17 39/50/17 40/52/17 90/146/17
f 39/50/14 67/104/14 129/219/14 148/251/14
f 112/185/7 128/217/7 127/215/7 58/86/7
f 67/104/11 112/185/11 113/187/11 168/286/11
f 126/213/18 125/211/18 69/107/18 167/284/18
f 125/211/9 91/148/9 110/182/9 109/180/9
f 111/183/15 126/213/15 147/249/15 146/247/15
f 91/148/12 111/183/12 166/282/12 68/106/12
f 96/155/5 59/88/5 148/251/5 129/219/5
f 30/33/19 28/31/19 116/192/19 77/119/19 155/262/19 29/32/19
f 28/31/6 110/182/6 68/106/6 116/192/6
f 91/148/20 68/106/20 110/182/20
f 77/119/4 107/177/4 158/267/4 155/262/4
f 144/244/21 158/267/21 107/177/21
f 29/32/3 105/175/3 106/176/3 30/33/3
f 63/97/22 106/176/22 105/175/22
f 95/154/23 94/152/23 80/127/23 81/129/23 139/235/23 138/232/23
f 138/232/6 139/235/6 166/283/6 146/248/6
f 111/184/24 146/248/24 166/283/24
f 81/129/4 80/127/4 161/273/4 143/243/4
f 160/271/25 143/243/25 161/273/25
f 94/152/1 95/154/1 54/79/1 55/81/1
f 56/83/26 55/81/26 54/79/26
f 140/237/27 75/116/27 141/239/27 152/257/27 100/166/27 119/199/27
f 119/199/6 100/166/6 69/108/6 109/181/6
f 125/212/28 109/181/28 69/108/28
f 152/257/2 141/239/2 89/145/2 52/75/2
f 35/43/29 52/75/29 89/145/29
f 75/116/3 140/237/3 64/99/3 82/131/3
f 122/206/30 82/131/30 64/99/30
f 137/229/31 97/159/31 50/71/31 60/91/31 156/264/31 61/93/31
f 97/159/6 147/250/6 167/285/6 50/71/6
f 126/214/32 167/285/32 147/250/32
f 60/91/2 88/143/2 87/141/2 156/264/2
f 102/170/33 87/141/33 88/143/33
f 61/93/1 164/279/1 32/37/1 137/229/1
f 163/277/34 32/37/34 164/279/34
f 99/163/35 27/30/35 142/241/35 117/195/35 118/197/35 76/118/35
f 76/118/5 118/197/5 113/188/5 58/87/5
f 112/186/36 58/87/36 113/188/36
f 117/195/4 142/241/4 85/137/4 38/49/4
f 84/135/37 38/49/37 85/137/37
f 27/30/3 99/163/3 104/174/3 83/133/3
f 37/47/38 83/133/38 104/174/38
f 79/124/39 96/156/39 48/65/39 47/63/39 121/204/39 46/60/39
f 96/156/5 129/220/5 168/287/5 48/65/5
f 67/105/40 168/287/40 129/220/40
f 47/63/4 124/210/4 108/179/4 121/204/4
f 159/269/41 108/179/41 124/210/41
f 46/60/1 57/85/1 101/168/1 79/124/1
f 123/208/42 101/168/42 57/85/42
f 154/261/43 153/259/43 74/114/43 62/96/43 31/35/43 120/201/43
f 153/259/5 127/216/5 90/147/5 74/114/5
f 128/218/44 90/147/44 127/216/44
f 62/96/2 145/246/2 165/281/2 31/35/2
f 36/45/45 165/281/45 145/246/45
f 120/201/3 51/73/3 65/101/3 154/261/3
f 103/172/46 65/101/46 51/73/46
f 49/68/47 157/266/47 78/121/47 26/28/47 98/161/47 59/89/47
f 59/89/5 98/161/5 40/53/5 148/252/5
f 39/51/48 148/252/48 40/53/48
f 26/28/2 78/121/2 34/41/2 66/103/2
f 53/77/49 66/103/49 34/41/49
f 157/266/1 49/68/1 33/39/1 162/275/1
f 86/139/50 162/275/50 33/39/50
